<?xml version="1.0" encoding="utf-8"?>
<!-- Generator: Adobe Illustrator 16.1.0, SVG Export Plug-In . SVG Version: 6.00 Build 0)  -->
<!DOCTYPE svg PUBLIC "-//W3C//DTD SVG 1.1//EN" "http://www.w3.org/Graphics/SVG/1.1/DTD/svg11.dtd">
<svg version="1.1" id="Layer_1" xmlns="http://www.w3.org/2000/svg" xmlns:xlink="http://www.w3.org/1999/xlink" x="0px" y="0px"
	 width="635.093px" height="280.728px" viewBox="0 0 635.093 280.728" enable-background="new 0 0 635.093 280.728"
	 xml:space="preserve">
<g>
	<path fill="#586E75" d="M199.413,142.283v-8.724h6.506v-7.693l9.813-8.988v16.681h9.244v8.724h-9.244v24.275
		c0,3.886,0.215,6.289,0.646,7.199c0.429,0.916,1.506,1.369,3.225,1.369c1.827,0,3.614-0.345,5.371-1.033v8.93
		c-2.514,0.898-5.025,1.345-7.539,1.345c-2.994,0-5.422-0.665-7.281-1.983c-1.862-1.328-3.03-2.985-3.512-4.984
		c-0.487-1.998-0.723-5.438-0.723-10.326v-24.795h-6.505V142.283z"/>
	<path fill="#586E75" d="M284.826,161.033h-42.032c0.616,4.604,2.44,8.344,5.47,11.204c3.031,2.857,6.909,4.286,11.624,4.286
		c6.848,0,12.27-2.757,16.266-8.263l8.673,3.817c-2.825,4.379-6.487,7.619-10.994,9.738c-4.514,2.113-9.228,3.17-14.155,3.17
		c-7.642,0-14.173-2.383-19.598-7.151c-5.418-4.766-8.13-11.192-8.13-19.283c0-7.678,2.645-13.999,7.925-18.955
		c5.291-4.957,11.356-7.434,18.207-7.434c6.715,0,12.796,2.419,18.251,7.255C281.789,144.253,284.624,151.458,284.826,161.033z
		 M274.709,153.903c-0.696-3.518-2.516-6.685-5.471-9.524c-2.969-2.843-6.592-4.267-10.905-4.267c-3.92,0-7.277,1.283-10.064,3.851
		c-2.786,2.562-4.489,5.877-5.113,9.938h31.553V153.903z"/>
	<path fill="#586E75" d="M339.881,133.557v18.897H331.1c-0.446-3.616-1.92-6.389-4.41-8.312c-2.5-1.926-5.4-2.892-8.71-2.892
		c-4.403,0-7.989,1.555-10.739,4.676c-2.757,3.11-4.127,7.203-4.127,12.261c0,4.719,1.302,8.879,3.921,12.475
		c2.617,3.596,6.406,5.396,11.36,5.396c6.885,0,11.875-3.27,14.977-9.81l8.104,3.819c-4.476,9.951-12.301,14.922-23.497,14.922
		c-7.919,0-14.145-2.699-18.689-8.105s-6.822-11.633-6.822-18.697c0-7.538,2.479-13.759,7.44-18.663
		c4.959-4.906,10.669-7.359,17.143-7.359c5.544,0,10.227,1.634,14.048,4.904v-3.509h8.781V133.557z"/>
	<path fill="#586E75" d="M355.066,174.82v-54.379h-9.037v-8.73h18.847v27.579c5.889-4.749,11.482-7.125,16.786-7.125
		c3.302,0,6.026,0.688,8.163,2.067c2.128,1.377,3.586,3.193,4.363,5.446s1.162,5.552,1.162,9.891v25.254h8.516v8.725h-18.334
		v-30.572c0-3.79-0.121-6.316-0.359-7.595c-0.24-1.272-0.902-2.323-1.988-3.149c-1.086-0.824-2.369-1.238-3.844-1.238
		c-3.79,0-8.612,2.15-14.465,6.451v27.374h8.678v8.725h-27.524v-8.725h9.037V174.82z"/>
</g>
<g>
	<path fill="#264B52" d="M31.726,264.759c-9.023,0-16.564-3.175-22.63-9.519C3.032,248.898,0,239.799,0,227.955
		c0-11.852,3.142-20.939,9.421-27.268c6.278-6.316,14.729-9.48,25.349-9.48c5.478,0,11.719,1.105,18.709,3.305V174.63
		c0-1.158,0.379-2.123,1.134-2.879c0.756-0.756,1.692-1.133,2.819-1.133h14.44c1.162,0,2.124,0.377,2.88,1.133
		c0.752,0.756,1.134,1.721,1.134,2.879v84.885c0,1.121-0.378,2.06-1.134,2.815c-0.756,0.755-1.718,1.132-2.88,1.132H59.439
		c-1.167,0-2.117-0.377-2.851-1.132c-0.736-0.756-1.102-1.694-1.102-2.815v-2.008C48.666,262.343,40.744,264.759,31.726,264.759z
		 M26.802,211.9c-2.458,3.343-3.688,8.703-3.688,16.082c0,7.384,1.166,12.757,3.497,16.127c2.329,3.365,5.835,5.045,10.522,5.045
		c4.682,0,10.132-1.942,16.347-5.827v-33.858c-5.567-1.725-10.25-2.592-14.048-2.592C33.475,206.876,29.265,208.552,26.802,211.9z"
		/>
	<path fill="#264B52" d="M92.461,255.309c-6.648-6.306-9.971-15.378-9.971-27.229c0-11.844,3.345-20.949,10.036-27.32
		c6.69-6.365,15.973-9.55,27.841-9.55s21.13,3.097,27.773,9.298c6.651,6.191,9.974,15.071,9.974,26.641v3.687
		c0,1.166-0.379,2.126-1.134,2.881c-0.756,0.757-1.717,1.136-2.88,1.136h-48.754c0.432,5.311,1.952,9.171,4.565,11.59
		c2.611,2.414,6.785,3.625,12.529,3.625c5.739,0,9.667-1.293,11.782-3.884c2.113-2.593,4.725-3.911,7.838-3.95h9.646
		c1.164,0,2.124,0.379,2.88,1.139c0.755,0.757,1.135,1.713,1.135,2.878c0,12.387-11.808,18.558-35.417,18.519
		C108.391,264.759,99.112,261.611,92.461,255.309z M105.219,221.185h30.105c-0.429-10.184-5.429-15.273-14.985-15.273
		C110.777,205.912,105.736,211.001,105.219,221.185z"/>
	<path fill="#264B52" d="M167.375,259.519V174.63c0-1.158,0.376-2.123,1.131-2.879c0.756-0.756,1.696-1.133,2.82-1.133h14.503
		c1.123,0,2.059,0.377,2.815,1.133c0.753,0.756,1.134,1.721,1.134,2.879v84.885c0,1.121-0.378,2.06-1.134,2.815
		c-0.756,0.755-1.692,1.132-2.815,1.132h-14.503c-1.125,0-2.064-0.377-2.82-1.132C167.751,261.575,167.375,260.636,167.375,259.519z
		"/>
	<path fill="#264B52" d="M207.616,258.8c-5.721-3.969-8.581-9.578-8.581-16.83c0-7.253,2.859-12.824,8.581-16.709
		c5.717-3.877,13.085-5.82,22.11-5.82h21.43c0-5.051-1.059-8.573-3.17-10.553c-2.116-1.988-5.82-2.977-11.102-2.977
		c-5.291,0-9.004,1.305-11.136,3.916c-2.139,2.612-4.762,3.915-7.872,3.915h-9.646c-1.165,0-2.126-0.376-2.882-1.132
		c-0.755-0.756-1.132-1.692-1.132-2.82c0-12.386,11.757-18.581,35.287-18.581c10.272,0,18.517,2.303,24.731,6.895
		c6.219,4.599,9.323,11.714,9.323,21.341v40.075c0,1.162-0.368,2.116-1.103,2.851c-0.734,0.73-1.677,1.099-2.846,1.099h-12.495
		c-1.167,0-2.113-0.378-2.851-1.134c-0.729-0.756-1.102-1.694-1.102-2.815v-2.008c-6.818,4.882-14.687,7.308-23.599,7.285
		C220.651,264.772,213.333,262.774,207.616,258.8z M224.125,236.335c-1.747,1.467-2.616,3.367-2.616,5.698
		c0,2.329,0.903,4.253,2.713,5.763c1.812,1.514,4.383,2.269,7.706,2.269c6.647,0,13.056-1.942,19.229-5.827v-10.106H231.28
		C228.257,234.131,225.871,234.87,224.125,236.335z"/>
	<path fill="#264B52" d="M286.833,259.519v-63.002c0-1.167,0.378-2.125,1.133-2.881c0.755-0.754,1.692-1.131,2.82-1.131h14.5
		c1.121,0,2.064,0.377,2.815,1.131c0.755,0.756,1.137,1.714,1.137,2.881v4.076c7.418-6.252,15.327-9.387,23.73-9.387
		c8.395,0,15.225,2.56,20.493,7.674c5.262,5.117,7.902,12.94,7.902,23.469v37.166c0,1.121-0.379,2.06-1.14,2.815
		c-0.756,0.755-1.716,1.132-2.882,1.132h-14.438c-1.12,0-2.06-0.377-2.819-1.132c-0.752-0.756-1.126-1.694-1.126-2.815v-37.166
		c0-10.314-4.122-15.473-12.371-15.473c-5.392,0-11.184,3.086-17.352,9.261v43.378c0,1.121-0.379,2.06-1.138,2.815
		c-0.75,0.755-1.692,1.132-2.815,1.132h-14.5c-1.128,0-2.064-0.377-2.82-1.132C287.208,261.575,286.833,260.636,286.833,259.519z"/>
	<path fill="#264B52" d="M399.69,264.759c-9.025,0-16.564-3.175-22.625-9.519c-6.07-6.343-9.099-15.441-9.099-27.286
		c0-11.852,3.134-20.939,9.417-27.268c6.279-6.316,14.73-9.48,25.35-9.48c5.481,0,11.724,1.105,18.71,3.305V174.63
		c0-1.158,0.376-2.123,1.132-2.879c0.764-0.756,1.699-1.133,2.82-1.133h14.44c1.166,0,2.124,0.377,2.88,1.133
		s1.136,1.721,1.136,2.879v84.885c0,1.121-0.377,2.06-1.136,2.815c-0.758,0.755-1.714,1.132-2.88,1.132h-12.431
		c-1.166,0-2.116-0.377-2.851-1.132c-0.731-0.756-1.101-1.694-1.101-2.815v-2.008C416.631,262.343,408.709,264.759,399.69,264.759z
		 M394.774,211.9c-2.461,3.343-3.692,8.703-3.692,16.082c0,7.384,1.166,12.757,3.492,16.127c2.333,3.365,5.839,5.045,10.524,5.045
		c4.681,0,10.133-1.942,16.347-5.827v-33.858c-5.569-1.725-10.249-2.592-14.049-2.592
		C401.434,206.876,397.233,208.552,394.774,211.9z"/>
</g>
<g>
	<g>
		<path fill="#CB4B17" d="M402.704,60.473c11.87-33.881,48.959-51.736,82.838-39.874c33.883,11.871,51.741,48.958,39.872,82.842
			c-11.86,33.894-48.955,51.736-82.839,39.874C408.696,131.447,390.841,94.36,402.704,60.473z M452.676,114.485
			c17.959,6.289,37.621-3.171,43.911-21.14c6.295-17.958-3.175-37.62-21.134-43.91c-17.963-6.291-37.628,3.176-43.922,21.138
			C425.243,88.535,434.717,108.194,452.676,114.485z"/>
		
			<rect x="473.294" y="2.393" transform="matrix(0.9438 0.3304 -0.3304 0.9438 35.2383 -158.6503)" fill="#CB4B17" width="21.942" height="43.859"/>
		
			<rect x="506.813" y="32.362" transform="matrix(0.4334 0.9012 -0.9012 0.4334 342.2695 -435.8483)" fill="#CB4B17" width="21.92" height="43.854"/>
		
			<rect x="509.305" y="77.225" transform="matrix(-0.3306 0.9438 -0.9438 -0.3306 785.8259 -359.093)" fill="#CB4B17" width="21.927" height="43.858"/>
		
			<rect x="479.325" y="110.76" transform="matrix(-0.9011 0.4337 -0.4337 -0.9011 989.6171 39.6211)" fill="#CB4B17" width="21.928" height="43.867"/>
		<polygon fill="#CB4B17" points="448.518,159.511 427.827,152.253 442.322,110.853 463.018,118.111 		"/>
		
			<rect x="400.93" y="83.287" transform="matrix(-0.4335 -0.9012 0.9012 -0.4335 495.6246 522.0132)" fill="#CB4B17" width="21.929" height="43.864"/>
		<polygon fill="#CB4B17" points="385.071,63.426 392.325,42.728 433.723,57.232 426.481,77.921 		"/>
		<polygon fill="#CB4B17" points="419.969,11.804 439.731,2.292 458.747,41.815 438.999,51.322 		"/>
	</g>
	<g>
		<path fill="#268AD2" d="M491.75,177.721c18.964-24.519,54.206-29.021,78.718-10.062c24.516,18.957,29.025,54.2,10.066,78.71
			c-18.961,24.527-54.195,29.022-78.723,10.075C477.305,237.484,472.792,202.242,491.75,177.721z M517.942,235.589
			c12.994,10.037,31.684,7.66,41.736-5.347c10.049-12.995,7.66-31.671-5.345-41.724c-12.988-10.052-31.672-7.668-41.721,5.335
			C502.562,206.851,504.952,225.533,517.942,235.589z"/>
		
			<rect x="558.955" y="151.436" transform="matrix(0.7911 0.6116 -0.6116 0.7911 222.914 -312.0783)" fill="#268AD2" width="18.93" height="37.857"/>
		<polygon fill="#268AD2" points="605.25,192.23 607.664,211.006 570.11,215.806 567.709,197.027 		"/>
		
			<rect x="568.045" y="222.547" transform="matrix(-0.6118 0.791 -0.791 -0.6118 1121.8315 -67.6385)" fill="#268AD2" width="18.939" height="37.86"/>
		
			<rect x="534.376" y="241.828" transform="matrix(-0.992 0.1265 -0.1265 -0.992 1116.3002 450.5938)" fill="#268AD2" width="18.922" height="37.857"/>
		
			<rect x="496.883" y="231.626" transform="matrix(-0.7908 -0.612 0.612 -0.7908 753.4422 758.5905)" fill="#268AD2" width="18.921" height="37.854"/>
		<polygon fill="#268AD2" points="469.51,228.656 467.104,209.884 504.672,205.083 507.061,223.869 		"/>
		<polygon fill="#268AD2" points="476.506,175.332 488.084,160.366 518.036,183.519 506.452,198.5 		"/>
		
			<rect x="521.515" y="141.203" transform="matrix(0.992 -0.1266 0.1266 0.992 -16.0011 68.5137)" fill="#268AD2" width="18.929" height="37.86"/>
	</g>
	<g>
		<path fill="#6C71C4" d="M555.952,94.091c10.221-16.627,32.006-21.824,48.637-11.593c16.632,10.223,21.82,32.015,11.603,48.628
			c-10.226,16.646-32.022,21.84-48.646,11.616C550.911,132.509,545.717,110.719,555.952,94.091z M575.303,130.117
			c9.664,5.948,22.329,2.919,28.268-6.732c5.943-9.677,2.932-22.33-6.738-28.256c-9.666-5.955-22.324-2.95-28.264,6.722
			C562.622,111.518,565.639,124.181,575.303,130.117z"/>
		<polygon fill="#6C71C4" points="606.435,67.03 617.573,73.886 603.863,96.151 592.743,89.304 		"/>
		
			<rect x="614.323" y="90.228" transform="matrix(0.2326 0.9726 -0.9726 0.2326 576.9144 -524.5507)" fill="#6C71C4" width="13.065" height="26.154"/>
		
			<rect x="610.084" y="116.698" transform="matrix(-0.5238 0.8518 -0.8518 -0.5238 1050.1599 -327.5181)" fill="#6C71C4" width="13.082" height="26.15"/>
		
			<rect x="588.37" y="132.391" transform="matrix(-0.9728 0.2315 -0.2315 -0.9728 1207.3259 149.2678)" fill="#6C71C4" width="13.071" height="26.156"/>
		
			<rect x="561.938" y="128.174" transform="matrix(-0.8516 -0.5242 0.5242 -0.8516 978.5397 559.5385)" fill="#6C71C4" width="13.085" height="26.139"/>
		<polygon fill="#6C71C4" points="541.526,128.932 538.499,116.222 563.932,110.156 566.975,122.873 		"/>
		
			<rect x="550.44" y="80.009" transform="matrix(0.5237 -0.8519 0.8519 0.5237 185.9679 518.8045)" fill="#6C71C4" width="13.074" height="26.146"/>
		<polygon fill="#6C71C4" points="569.292,66.144 582.002,63.126 588.064,88.555 575.362,91.588 		"/>
	</g>
</g>
</svg>
