<?xml version="1.0" encoding="utf-8"?>
<!-- Generator: Adobe Illustrator 16.1.0, SVG Export Plug-In . SVG Version: 6.00 Build 0)  -->
<!DOCTYPE svg PUBLIC "-//W3C//DTD SVG 1.1//EN" "http://www.w3.org/Graphics/SVG/1.1/DTD/svg11.dtd">
<svg version="1.1" id="Layer_1" xmlns="http://www.w3.org/2000/svg" xmlns:xlink="http://www.w3.org/1999/xlink" x="0px" y="0px"
	 width="763.379px" height="638.951px" viewBox="0 0 763.379 638.951" enable-background="new 0 0 763.379 638.951"
	 xml:space="preserve">
<text transform="matrix(1 0 0 1 337.2197 489.625)" fill="#586E75" font-family="'Rockwell'" font-size="178.1838">tech</text>
<text transform="matrix(1 0 0 1 0 624.2666)"><tspan x="0" y="0" fill="#264B52" font-family="'DaysOne-Regular'" font-size="223.3964" letter-spacing="-8">d</tspan><tspan x="138.977" y="0" fill="#264B52" font-family="'DaysOne-Regular'" font-size="223.3964" letter-spacing="-4">ela</tspan><tspan x="476.484" y="0" fill="#264B52" font-family="'DaysOne-Regular'" font-size="223.3964" letter-spacing="-8">n</tspan><tspan x="619.934" y="0" fill="#264B52" font-family="'DaysOne-Regular'" font-size="223.3964" letter-spacing="-4">d</tspan></text>
<g>
	<path fill="#CB4B17" d="M152.272,166.245c-12.049-59.271,26.231-117.101,85.49-129.165
		c59.276-12.047,117.109,26.227,129.164,85.499c12.063,59.274-26.221,117.098-85.49,129.162
		C222.164,263.788,164.335,225.515,152.272,166.245z M271.174,201.3c31.425-6.392,51.717-37.036,45.322-68.466
		c-6.382-31.417-37.045-51.706-68.463-45.312c-31.419,6.392-51.71,37.048-45.324,68.472
		C209.099,187.407,239.762,207.698,271.174,201.3z"/>
	
		<rect x="220.613" y="6.609" transform="matrix(-0.9799 0.1993 -0.1993 -0.9799 482.0646 38.5792)" fill="#CB4B17" width="36.955" height="73.893"/>
	<polygon fill="#CB4B17" points="318.435,17.005 349.238,37.39 308.453,99.009 277.644,78.628 	"/>
	<polygon fill="#CB4B17" points="388.32,95.346 395.683,131.539 323.276,146.27 315.904,110.077 	"/>
	<polygon fill="#CB4B17" points="382.342,200.157 361.953,230.958 300.332,190.165 320.727,159.363 	"/>
	<polygon fill="#CB4B17" points="304.005,270.048 267.803,277.39 253.075,204.98 289.282,197.635 	"/>
	<polygon fill="#CB4B17" points="199.197,264.062 168.391,243.667 209.179,182.052 239.991,202.444 	"/>
	<polygon fill="#CB4B17" points="129.3,185.721 121.955,149.52 194.369,134.798 201.731,170.979 	"/>
	<polygon fill="#CB4B17" points="135.286,80.914 155.682,50.104 217.289,90.896 196.904,121.696 	"/>
</g>
<g>
	<path fill="#268AD2" d="M382.279,259.111c6.294-51.83,53.416-88.753,105.236-82.462c51.842,6.285,88.759,53.409,82.475,105.233
		c-6.293,51.851-53.411,88.747-105.24,82.479C412.916,358.064,375.999,310.953,382.279,259.111z M470.105,320.265
		c27.462,3.322,52.452-16.244,55.776-43.733c3.348-27.472-16.227-52.45-43.712-55.783c-27.476-3.34-52.454,16.226-55.783,43.718
		C423.05,291.944,442.63,316.912,470.105,320.265z"/>
	<polygon fill="#268AD2" points="474.85,148.722 506.512,152.562 498.831,215.881 467.173,212.051 	"/>
	<polygon fill="#268AD2" points="559.05,182.204 578.737,207.3 528.53,246.635 508.848,221.534 	"/>
	<polygon fill="#268AD2" points="594.94,265.398 591.1,297.076 527.787,289.388 531.613,257.723 	"/>
	<polygon fill="#268AD2" points="561.465,349.621 536.364,369.27 497.033,319.081 522.12,299.407 	"/>
	<polygon fill="#268AD2" points="478.241,385.501 446.593,381.656 454.269,318.337 485.923,322.162 	"/>
	<polygon fill="#268AD2" points="394.021,352.013 374.354,326.916 424.579,287.566 444.248,312.684 	"/>
	<polygon fill="#268AD2" points="358.155,268.797 362.011,237.151 425.318,244.83 421.481,276.496 	"/>
	<polygon fill="#268AD2" points="391.631,184.587 416.732,164.926 456.076,215.13 430.985,234.794 	"/>
</g>
<g>
	<path fill="#6C71C4" d="M403.056,82.706c0.444-32.878,27.495-59.193,60.39-58.733c32.89,0.448,59.197,27.509,58.739,60.37
		c-0.45,32.906-27.517,59.23-60.387,58.763C428.899,142.655,402.586,115.595,403.056,82.706z M462.135,118.149
		c19.112,0.273,34.82-15.026,35.1-34.125c0.259-19.124-15.016-34.84-34.127-35.078c-19.126-0.28-34.85,14.988-35.107,34.111
		C427.735,102.174,443.024,117.896,462.135,118.149z"/>
	<polygon fill="#6C71C4" points="452.768,0 474.801,0.31 474.165,44.361 452.159,44.049 	"/>
	<polygon fill="#6C71C4" points="513.06,16.79 528.417,32.565 496.843,63.292 481.47,47.507 	"/>
	<polygon fill="#6C71C4" points="543.834,71.276 543.521,93.316 499.467,92.714 499.77,70.669 	"/>
	<polygon fill="#6C71C4" points="527.05,131.596 511.262,146.94 480.543,115.346 496.325,100.005 	"/>
	<polygon fill="#6C71C4" points="472.548,162.363 450.507,162.046 451.126,118.009 473.144,118.31 	"/>
	<polygon fill="#6C71C4" points="412.233,145.562 396.884,129.784 428.459,99.06 443.831,114.851 	"/>
	<polygon fill="#6C71C4" points="381.477,91.069 381.771,69.054 425.826,69.654 425.523,91.683 	"/>
	<polygon fill="#6C71C4" points="398.253,30.758 414.045,15.421 444.756,46.998 428.988,62.344 	"/>
</g>
</svg>
