<?xml version="1.0" encoding="utf-8"?>
<!-- Generator: Adobe Illustrator 16.1.0, SVG Export Plug-In . SVG Version: 6.00 Build 0)  -->
<!DOCTYPE svg PUBLIC "-//W3C//DTD SVG 1.1//EN" "http://www.w3.org/Graphics/SVG/1.1/DTD/svg11.dtd">
<svg version="1.1" id="Layer_1" xmlns="http://www.w3.org/2000/svg" xmlns:xlink="http://www.w3.org/1999/xlink" x="0px" y="0px"
	 width="1154px" height="556px" viewBox="-873.209 -27.445 1154 556" enable-background="new -873.209 -27.445 1154 556"
	 xml:space="preserve">
<g>
	<path fill="#586E75" d="M-503.601,244.369v-14.98h11.172v-13.21l16.851-15.434v28.644h15.873v14.98h-15.873v41.686
		c0,6.673,0.369,10.799,1.108,12.363c0.736,1.572,2.586,2.351,5.537,2.351c3.137,0,6.207-0.592,9.224-1.775v15.336
		c-4.317,1.542-8.63,2.309-12.946,2.309c-5.141,0-9.311-1.142-12.503-3.406c-3.198-2.28-5.204-5.126-6.031-8.56
		c-0.837-3.431-1.241-9.338-1.241-17.731v-42.577h-11.17V244.369z"/>
	<path fill="#586E75" d="M-356.929,276.566h-72.177c1.058,7.907,4.189,14.328,9.393,19.24c5.204,4.906,11.863,7.359,19.96,7.359
		c11.76,0,21.069-4.733,27.932-14.188l14.893,6.557c-4.851,7.518-11.139,13.083-18.878,16.723
		c-7.752,3.628-15.846,5.442-24.308,5.442c-13.122,0-24.338-4.093-33.654-12.28c-9.304-8.184-13.961-19.22-13.961-33.113
		c0-13.185,4.541-24.038,13.608-32.549c9.085-8.512,19.501-12.766,31.265-12.766c11.532,0,21.974,4.154,31.342,12.458
		C-362.145,247.753-357.276,260.125-356.929,276.566z M-374.301,264.323c-1.195-6.04-4.32-11.479-9.395-16.356
		c-5.098-4.881-11.32-7.326-18.726-7.326c-6.731,0-12.496,2.203-17.283,6.612c-4.784,4.4-7.709,10.094-8.779,17.064h54.183V264.323z
		"/>
	<path fill="#586E75" d="M-262.387,229.385v32.45h-15.081c-0.766-6.209-3.297-10.971-7.572-14.274
		c-4.293-3.306-9.274-4.965-14.958-4.965c-7.561,0-13.718,2.67-18.44,8.029c-4.734,5.342-7.087,12.369-7.087,21.054
		c0,8.104,2.236,15.248,6.733,21.421c4.493,6.176,11,9.269,19.508,9.269c11.823,0,20.392-5.615,25.718-16.846l13.917,6.56
		c-7.686,17.087-21.123,25.622-40.349,25.622c-13.598,0-24.289-4.634-32.093-13.917c-7.804-9.284-11.714-19.976-11.714-32.108
		c0-12.944,4.257-23.626,12.775-32.048c8.516-8.424,18.322-12.638,29.438-12.638c9.521,0,17.562,2.806,24.123,8.421v-6.026h15.081
		V229.385z"/>
	<path fill="#586E75" d="M-236.312,300.243v-93.381h-15.519v-14.991h32.363v47.358c10.112-8.154,19.718-12.235,28.825-12.235
		c5.67,0,10.349,1.181,14.019,3.55c3.653,2.365,6.157,5.482,7.491,9.352c1.336,3.868,1.995,9.533,1.995,16.984v43.366h14.624v14.98
		h-31.483v-52.498c0-6.508-0.208-10.847-0.617-13.042c-0.411-2.184-1.55-3.989-3.414-5.408c-1.865-1.415-4.068-2.126-6.602-2.126
		c-6.507,0-14.788,3.692-24.838,11.079v47.006h14.9v14.981h-47.264v-14.981h15.519V300.243z"/>
</g>
<g>
	<path fill="#264B52" d="M-791.553,454.685c-15.494,0-28.444-5.451-38.86-16.345c-10.413-10.892-15.619-26.516-15.619-46.855
		c0-20.352,5.396-35.957,16.178-46.823c10.78-10.849,25.293-16.28,43.53-16.28c9.406,0,20.123,1.897,32.128,5.674v-34.14
		c0-1.989,0.65-3.646,1.947-4.943c1.298-1.297,2.906-1.944,4.841-1.944h24.796c1.995,0,3.647,0.647,4.945,1.944
		c1.292,1.298,1.947,2.954,1.947,4.943V445.68c0,1.926-0.649,3.537-1.947,4.835c-1.298,1.297-2.95,1.942-4.945,1.942h-21.352
		c-2.003,0-3.635-0.646-4.896-1.942c-1.264-1.298-1.893-2.909-1.893-4.835v-3.447C-762.464,450.537-776.067,454.685-791.553,454.685
		z M-800.008,363.916c-4.22,5.74-6.334,14.944-6.334,27.616c0,12.68,2.003,21.906,6.006,27.694
		c3.999,5.776,10.02,8.662,18.068,8.662c8.04,0,17.399-3.336,28.071-10.007V359.74c-9.56-2.962-17.603-4.451-24.124-4.451
		C-788.55,355.289-795.778,358.168-800.008,363.916z"/>
	<path fill="#264B52" d="M-687.259,438.458c-11.416-10.827-17.122-26.407-17.122-46.759c0-20.337,5.744-35.974,17.233-46.914
		c11.488-10.931,27.428-16.398,47.809-16.398s36.285,5.316,47.692,15.965c11.421,10.633,17.128,25.882,17.128,45.748v6.331
		c0,2.002-0.65,3.65-1.947,4.947c-1.299,1.299-2.948,1.95-4.945,1.95h-83.721c0.741,9.119,3.353,15.748,7.84,19.901
		c4.484,4.146,11.651,6.226,21.515,6.226c9.854,0,16.6-2.22,20.231-6.67c3.629-4.451,8.113-6.715,13.459-6.784h16.563
		c1.998,0,3.647,0.652,4.945,1.956c1.297,1.3,1.948,2.941,1.948,4.942c0,21.271-20.276,31.867-60.817,31.801
		C-659.904,454.685-675.838,449.279-687.259,438.458z M-665.35,379.86h51.696c-0.736-17.486-9.322-26.229-25.733-26.229
		C-655.806,353.632-664.463,362.374-665.35,379.86z"/>
	<path fill="#264B52" d="M-558.616,445.686V299.916c0-1.989,0.646-3.646,1.942-4.943c1.298-1.297,2.912-1.944,4.843-1.944h24.904
		c1.929,0,3.536,0.647,4.834,1.944c1.293,1.298,1.948,2.954,1.948,4.943V445.68c0,1.926-0.65,3.537-1.948,4.835
		c-1.298,1.297-2.905,1.942-4.834,1.942h-24.904c-1.931,0-3.545-0.646-4.843-1.942
		C-557.971,449.218-558.616,447.606-558.616,445.686z"/>
	<path fill="#264B52" d="M-489.514,444.453c-9.824-6.814-14.734-16.448-14.734-28.9c0-12.455,4.91-22.022,14.734-28.693
		c9.817-6.657,22.47-9.994,37.968-9.994h36.799c0-8.673-1.817-14.722-5.443-18.122c-3.634-3.414-9.994-5.109-19.064-5.109
		c-9.085,0-15.461,2.239-19.123,6.724c-3.673,4.486-8.177,6.723-13.517,6.723h-16.563c-2,0-3.651-0.646-4.949-1.944
		c-1.297-1.298-1.944-2.905-1.944-4.843c0-21.268,20.19-31.906,60.595-31.906c17.639,0,31.797,3.954,42.469,11.839
		c10.68,7.896,16.009,20.115,16.009,36.646v68.818c0,1.995-0.631,3.634-1.893,4.896c-1.261,1.253-2.881,1.886-4.887,1.886h-21.457
		c-2.003,0-3.628-0.649-4.896-1.946c-1.253-1.298-1.892-2.91-1.892-4.835v-3.448c-11.708,8.383-25.221,12.55-40.524,12.511
		C-467.13,454.708-479.696,451.277-489.514,444.453z M-461.165,405.877c-3,2.52-4.492,5.781-4.492,9.785
		c0,3.998,1.551,7.302,4.659,9.896c3.112,2.599,7.526,3.896,13.233,3.896c11.415,0,22.42-3.336,33.02-10.007v-17.354h-34.134
		C-454.069,402.092-458.166,403.359-461.165,405.877z"/>
	<path fill="#264B52" d="M-353.481,445.686V337.5c0-2.003,0.648-3.647,1.945-4.945c1.297-1.297,2.906-1.942,4.842-1.942h24.9
		c1.925,0,3.544,0.646,4.834,1.942c1.297,1.298,1.952,2.942,1.952,4.945v6.999c12.738-10.735,26.319-16.117,40.749-16.117
		c14.415,0,26.144,4.395,35.19,13.178c9.035,8.787,13.569,22.221,13.569,40.301v63.82c0,1.926-0.65,3.537-1.956,4.835
		c-1.298,1.297-2.945,1.942-4.948,1.942h-24.794c-1.925,0-3.536-0.646-4.842-1.942c-1.29-1.298-1.934-2.909-1.934-4.835v-63.82
		c0-17.714-7.079-26.571-21.243-26.571c-9.258,0-19.206,5.299-29.797,15.903v74.488c0,1.926-0.65,3.537-1.953,4.835
		c-1.289,1.297-2.906,1.942-4.834,1.942h-24.899c-1.937,0-3.545-0.646-4.843-1.942
		C-352.839,449.218-353.481,447.606-353.481,445.686z"/>
	<path fill="#264B52" d="M-159.685,454.685c-15.497,0-28.443-5.451-38.852-16.345c-10.424-10.892-15.624-26.516-15.624-46.855
		c0-20.352,5.381-35.957,16.172-46.823c10.782-10.849,25.293-16.28,43.529-16.28c9.413,0,20.132,1.897,32.129,5.674v-34.14
		c0-1.989,0.646-3.646,1.944-4.943c1.31-1.297,2.917-1.944,4.843-1.944h24.797c2.002,0,3.647,0.647,4.945,1.944
		c1.297,1.298,1.95,2.954,1.95,4.943V445.68c0,1.926-0.647,3.537-1.95,4.835c-1.301,1.297-2.943,1.942-4.945,1.942h-21.346
		c-2.004,0-3.635-0.646-4.896-1.942c-1.257-1.298-1.89-2.909-1.89-4.835v-3.447C-130.593,450.537-144.195,454.685-159.685,454.685z
		 M-168.127,363.916c-4.226,5.74-6.34,14.944-6.34,27.616c0,12.68,2.002,21.906,5.997,27.694c4.007,5.776,10.027,8.662,18.073,8.662
		c8.037,0,17.4-3.336,28.069-10.007V359.74c-9.562-2.962-17.601-4.451-24.124-4.451
		C-156.689,355.289-163.904,358.168-168.127,363.916z"/>
</g>
<g>
	<g>
		<path fill="#CB4B17" d="M-154.509,103.885c20.383-58.181,84.071-88.842,142.249-68.472c58.185,20.384,88.85,84.071,68.468,142.257
			c-20.367,58.202-84.065,88.841-142.251,68.471C-144.22,225.762-174.879,162.076-154.509,103.885z M-68.695,196.635
			c30.839,10.799,64.603-5.445,75.403-36.302c10.81-30.839-5.451-64.601-36.291-75.402c-30.847-10.803-64.614,5.454-75.422,36.299
			C-115.805,152.074-99.534,185.833-68.695,196.635z"/>
		<polygon fill="#CB4B17" points="-9.115,83.576 -44.677,71.126 -19.789,0.041 15.765,12.49 		"/>
		
			<rect x="24.267" y="55.614" transform="matrix(0.4334 0.9012 -0.9012 0.4334 108.4624 14.012)" fill="#CB4B17" width="37.64" height="75.305"/>
		<polygon fill="#CB4B17" points="5.609,175.631 18.057,140.094 89.137,164.985 76.695,200.521 		"/>
		
			<rect x="-22.935" y="190.237" transform="matrix(-0.9011 0.4337 -0.4337 -0.9011 91.0346 435.0355)" fill="#CB4B17" width="37.654" height="75.329"/>
		<polygon fill="#CB4B17" points="-75.838,273.955 -111.367,261.492 -86.477,190.398 -50.937,202.861 		"/>
		
			<rect x="-157.555" y="143.061" transform="matrix(-0.4335 -0.9012 0.9012 -0.4335 -361.7221 134.0464)" fill="#CB4B17" width="37.656" height="75.323"/>
		<polygon fill="#CB4B17" points="-184.789,108.956 -172.331,73.413 -101.243,98.32 -113.679,133.846 		"/>
		<polygon fill="#CB4B17" points="-124.861,20.311 -90.925,3.977 -58.271,71.845 -92.184,88.171 		"/>
	</g>
	<g>
		<path fill="#268AD2" d="M-1.6,305.224c32.564-42.104,93.084-49.834,135.175-17.278c42.097,32.554,49.842,93.073,17.286,135.161
			c-32.562,42.118-93.064,49.837-135.183,17.301C-26.404,407.849-34.155,347.332-1.6,305.224z M43.378,404.595
			c22.313,17.236,54.407,13.153,71.669-9.182c17.256-22.315,13.154-54.386-9.177-71.647c-22.304-17.261-54.388-13.168-71.644,9.161
			C16.968,355.245,21.071,387.326,43.378,404.595z"/>
		<polygon fill="#268AD2" points="123.037,328.248 97.318,308.364 137.081,256.934 162.794,276.813 		"/>
		<polygon fill="#268AD2" points="193.306,330.139 197.448,362.382 132.962,370.623 128.838,338.375 		"/>
		
			<rect x="129.416" y="382.198" transform="matrix(-0.6117 0.7911 -0.7911 -0.6117 562.8532 553.1448)" fill="#268AD2" width="32.521" height="65.014"/>
		
			<rect x="71.598" y="415.308" transform="matrix(-0.992 0.1266 -0.1266 -0.992 231.6568 880.9055)" fill="#268AD2" width="32.494" height="65.007"/>
		<polygon fill="#268AD2" points="30.501,394.64 56.197,414.525 16.421,465.94 -9.281,446.056 		"/>
		<polygon fill="#268AD2" points="-39.789,392.69 -43.921,360.454 20.591,352.211 24.693,384.469 		"/>
		<polygon fill="#268AD2" points="-27.776,301.121 -7.893,275.422 43.539,315.179 23.646,340.906 		"/>
		
			<rect x="49.514" y="242.515" transform="matrix(0.9919 -0.1267 0.1267 0.9919 -34.3065 10.5456)" fill="#268AD2" width="32.504" height="65.013"/>
	</g>
	<g>
		<path fill="#6C71C4" d="M108.648,161.614c17.551-28.552,54.96-37.476,83.519-19.908c28.561,17.556,37.47,54.977,19.925,83.504
			c-17.561,28.583-54.99,37.504-83.534,19.948C99.991,227.586,91.073,190.168,108.648,161.614z M141.88,223.478
			c16.595,10.214,38.343,5.013,48.539-11.56c10.207-16.617,5.034-38.346-11.569-48.522c-16.6-10.225-38.337-5.065-48.536,11.543
			C120.103,191.54,125.284,213.285,141.88,223.478z"/>
		<polygon fill="#6C71C4" points="195.339,115.145 214.465,126.918 190.922,165.151 171.827,153.393 		"/>
		
			<rect x="208.885" y="154.982" transform="matrix(0.2326 0.9726 -0.9726 0.2326 341.4857 -77.8963)" fill="#6C71C4" width="22.435" height="44.911"/>
		<polygon fill="#6C71C4" points="187.829,220.692 199.598,201.555 237.845,225.082 226.075,244.222 		"/>
		
			<rect x="164.318" y="227.384" transform="matrix(-0.9728 0.2315 -0.2315 -0.9728 404.1528 452.2542)" fill="#6C71C4" width="22.445" height="44.915"/>
		
			<rect x="118.927" y="220.142" transform="matrix(-0.8516 -0.5242 0.5242 -0.8516 113.8343 517.3998)" fill="#6C71C4" width="22.47" height="44.887"/>
		<polygon fill="#6C71C4" points="83.877,221.443 78.677,199.617 122.354,189.201 127.579,211.038 		"/>
		
			<rect x="99.183" y="137.431" transform="matrix(0.5237 -0.8519 0.8519 0.5237 -83.6156 170.2068)" fill="#6C71C4" width="22.451" height="44.9"/>
		<polygon fill="#6C71C4" points="131.556,113.623 153.384,108.441 163.792,152.107 141.979,157.316 		"/>
	</g>
</g>
</svg>
