<?xml version="1.0" encoding="utf-8"?>
<!-- Generator: Adobe Illustrator 17.0.0, SVG Export Plug-In . SVG Version: 6.00 Build 0)  -->
<!DOCTYPE svg PUBLIC "-//W3C//DTD SVG 1.1//EN" "http://www.w3.org/Graphics/SVG/1.1/DTD/svg11.dtd">
<svg version="1.1" id="Layer_1" xmlns="http://www.w3.org/2000/svg" xmlns:xlink="http://www.w3.org/1999/xlink" x="0px" y="0px"
	 width="763.379px" height="638.951px" viewBox="0 0 763.379 638.951" enable-background="new 0 0 763.379 638.951"
	 xml:space="preserve">
<g>
	<path fill="#CB4B17" d="M152.272,166.245c-12.049-59.271,26.231-117.101,85.49-129.165
		c59.276-12.047,117.109,26.227,129.164,85.499c12.063,59.274-26.221,117.098-85.49,129.162
		C222.164,263.788,164.335,225.515,152.272,166.245z M271.174,201.3c31.425-6.392,51.717-37.036,45.322-68.466
		c-6.382-31.417-37.045-51.706-68.463-45.312c-31.419,6.392-51.71,37.048-45.324,68.472
		C209.099,187.407,239.762,207.698,271.174,201.3z"/>
	
		<rect x="220.622" y="6.605" transform="matrix(0.9799 -0.1993 0.1993 0.9799 -3.8828 48.528)" fill="#CB4B17" width="36.954" height="73.89"/>
	<polygon fill="#CB4B17" points="318.435,17.005 349.238,37.39 308.453,99.009 277.644,78.628 	"/>
	<polygon fill="#CB4B17" points="388.32,95.346 395.683,131.539 323.276,146.27 315.904,110.077 	"/>
	<polygon fill="#CB4B17" points="382.342,200.157 361.953,230.958 300.332,190.165 320.727,159.363 	"/>
	<polygon fill="#CB4B17" points="304.005,270.048 267.803,277.39 253.075,204.98 289.282,197.635 	"/>
	<polygon fill="#CB4B17" points="199.197,264.062 168.391,243.667 209.179,182.052 239.991,202.444 	"/>
	<polygon fill="#CB4B17" points="129.3,185.721 121.955,149.52 194.369,134.798 201.731,170.979 	"/>
	<polygon fill="#CB4B17" points="135.286,80.914 155.682,50.104 217.289,90.896 196.904,121.696 	"/>
</g>
<g>
	<path fill="#268AD2" d="M382.279,259.111c6.294-51.83,53.416-88.753,105.236-82.462c51.842,6.285,88.759,53.409,82.475,105.233
		c-6.293,51.851-53.411,88.747-105.24,82.479C412.916,358.064,375.999,310.953,382.279,259.111z M470.105,320.265
		c27.462,3.322,52.452-16.244,55.776-43.733c3.348-27.472-16.227-52.45-43.712-55.783c-27.476-3.34-52.454,16.226-55.783,43.718
		C423.05,291.944,442.63,316.912,470.105,320.265z"/>
	<polygon fill="#268AD2" points="474.85,148.722 506.512,152.562 498.831,215.881 467.173,212.051 	"/>
	<polygon fill="#268AD2" points="559.05,182.204 578.737,207.3 528.53,246.635 508.848,221.534 	"/>
	<polygon fill="#268AD2" points="594.94,265.398 591.1,297.076 527.787,289.388 531.613,257.723 	"/>
	<polygon fill="#268AD2" points="561.465,349.621 536.364,369.27 497.033,319.081 522.12,299.407 	"/>
	<polygon fill="#268AD2" points="478.241,385.501 446.593,381.656 454.269,318.337 485.923,322.162 	"/>
	<polygon fill="#268AD2" points="394.021,352.013 374.354,326.916 424.579,287.566 444.248,312.684 	"/>
	<polygon fill="#268AD2" points="358.155,268.797 362.011,237.151 425.318,244.83 421.481,276.496 	"/>
	<polygon fill="#268AD2" points="391.631,184.587 416.732,164.926 456.076,215.13 430.985,234.794 	"/>
</g>
<g>
	<path fill="#6C71C4" d="M403.056,82.706c0.444-32.878,27.495-59.193,60.39-58.733c32.89,0.448,59.197,27.509,58.739,60.37
		c-0.45,32.906-27.517,59.23-60.387,58.763C428.899,142.655,402.586,115.595,403.056,82.706z M462.135,118.149
		c19.112,0.273,34.82-15.026,35.1-34.125c0.259-19.124-15.016-34.84-34.127-35.078c-19.126-0.28-34.85,14.988-35.107,34.111
		C427.735,102.174,443.024,117.896,462.135,118.149z"/>
	<polygon fill="#6C71C4" points="452.768,0 474.801,0.31 474.165,44.361 452.159,44.049 	"/>
	<polygon fill="#6C71C4" points="513.06,16.79 528.417,32.565 496.843,63.292 481.47,47.507 	"/>
	<polygon fill="#6C71C4" points="543.834,71.276 543.521,93.316 499.467,92.714 499.77,70.669 	"/>
	<polygon fill="#6C71C4" points="527.05,131.596 511.262,146.94 480.543,115.346 496.325,100.005 	"/>
	<polygon fill="#6C71C4" points="472.548,162.363 450.507,162.046 451.126,118.009 473.144,118.31 	"/>
	<polygon fill="#6C71C4" points="412.233,145.562 396.884,129.784 428.459,99.06 443.831,114.851 	"/>
	<polygon fill="#6C71C4" points="381.477,91.069 381.771,69.054 425.826,69.654 425.523,91.683 	"/>
	<polygon fill="#6C71C4" points="398.253,30.758 414.045,15.421 444.756,46.998 428.988,62.344 	"/>
</g>
<g>
	<path fill="#586E75" d="M342.511,420.842v-14.591h10.881v-12.866l16.412-15.032v27.898h15.46v14.591h-15.46v40.599
		c0,6.499,0.36,10.518,1.08,12.04c0.717,1.532,2.519,2.29,5.394,2.29c3.056,0,6.044-0.577,8.983-1.728v14.935
		c-4.205,1.502-8.404,2.249-12.609,2.249c-5.007,0-9.068-1.112-12.177-3.317c-3.114-2.221-5.068-4.992-5.874-8.336
		c-0.814-3.342-1.209-9.095-1.209-17.27v-41.469h-10.879v0.005H342.511z"/>
	<path fill="#586E75" d="M485.362,452.2h-70.297c1.03,7.7,4.081,13.955,9.148,18.738c5.069,4.778,11.555,7.168,19.441,7.168
		c11.453,0,20.521-4.611,27.204-13.82l14.505,6.384c-4.725,7.324-10.849,12.743-18.387,16.286
		c-7.55,3.534-15.434,5.302-23.674,5.302c-12.781,0-23.704-3.985-32.777-11.96c-9.061-7.971-13.597-18.718-13.597-32.25
		c0-12.841,4.424-23.413,13.254-31.702c8.849-8.29,18.993-12.433,30.451-12.433c11.231,0,21.401,4.046,30.524,12.134
		C480.282,424.136,485.024,436.186,485.362,452.2z M468.441,440.276c-1.164-5.884-4.208-11.18-9.15-15.929
		c-4.966-4.755-11.025-7.136-18.238-7.136c-6.556,0-12.171,2.146-16.832,6.441c-4.659,4.285-7.508,9.829-8.551,16.621h52.771
		V440.276z"/>
	<path fill="#586E75" d="M577.439,406.248v31.605h-14.686c-0.746-6.048-3.211-10.685-7.376-13.902
		c-4.181-3.221-9.031-4.837-14.567-4.837c-7.364,0-13.361,2.601-17.961,7.82c-4.611,5.201-6.902,12.047-6.902,20.506
		c0,7.892,2.178,14.85,6.558,20.864c4.377,6.014,10.714,9.025,18.999,9.025c11.515,0,19.861-5.469,25.048-16.407l13.554,6.387
		c-7.486,16.643-20.573,24.957-39.298,24.957c-13.244,0-23.657-4.514-31.257-13.555c-7.6-9.041-11.41-19.456-11.41-31.27
		c0-12.607,4.146-23.011,12.443-31.213c8.294-8.205,17.844-12.308,28.671-12.308c9.272,0,17.104,2.733,23.495,8.202v-5.869h14.686
		v-0.005H577.439z"/>
	<path fill="#586E75" d="M602.836,475.259v-90.947h-15.114v-14.601h31.521v46.125c9.849-7.943,19.203-11.916,28.074-11.916
		c5.522,0,10.078,1.151,13.652,3.457c3.559,2.303,5.997,5.34,7.297,9.108c1.3,3.768,1.943,9.286,1.943,16.542v42.236h14.243v14.592
		h-30.663v-51.131c0-6.339-0.202-10.563-0.6-12.702c-0.401-2.127-1.509-3.885-3.325-5.267c-1.816-1.378-3.962-2.07-6.429-2.07
		c-6.339,0-14.403,3.596-24.192,10.789v45.782h14.514v14.592h-46.033v-14.592h15.114v0.002H602.836z"/>
</g>
<g>
	<path fill="#264B52" d="M62.061,625.679c-15.091,0-27.703-5.31-37.848-15.92C14.071,599.152,9,583.934,9,564.125
		c0-19.822,5.255-35.02,15.756-45.605c10.5-10.563,24.634-15.855,42.395-15.855c9.162,0,19.6,1.848,31.29,5.527v-33.252
		c0-1.937,0.634-3.551,1.897-4.815c1.264-1.264,2.83-1.895,4.715-1.895h24.15c1.943,0,3.552,0.631,4.817,1.895
		c1.258,1.264,1.897,2.878,1.897,4.815v141.967c0,1.875-0.632,3.445-1.897,4.708c-1.264,1.263-2.873,1.893-4.817,1.893H108.41
		c-1.952,0-3.541-0.631-4.768-1.893c-1.231-1.264-1.843-2.833-1.843-4.708v-3.358C90.392,621.638,77.143,625.679,62.061,625.679z
		 M53.825,537.274c-4.111,5.591-6.168,14.555-6.168,26.897c0,12.349,1.95,21.336,5.849,26.972c3.895,5.628,9.759,8.438,17.598,8.438
		c7.83,0,16.945-3.248,27.34-9.745v-56.626c-9.311-2.885-17.143-4.335-23.495-4.335C64.986,528.871,57.945,531.674,53.825,537.274z"
		/>
	<path fill="#264B52" d="M163.638,609.874c-11.119-10.547-16.676-25.719-16.676-45.54c0-19.809,5.594-35.036,16.785-45.692
		c11.189-10.645,26.714-15.972,46.563-15.972s35.339,5.18,46.449,15.551c11.124,10.354,16.681,25.206,16.681,44.556v6.166
		c0,1.95-0.634,3.556-1.897,4.818c-1.264,1.266-2.872,1.9-4.817,1.9h-81.539c0.723,8.883,3.265,15.338,7.635,19.384
		c4.367,4.037,11.348,6.063,20.954,6.063c9.598,0,16.168-2.163,19.705-6.496c3.534-4.337,7.902-6.541,13.109-6.606h16.133
		c1.947,0,3.552,0.634,4.817,1.905c1.263,1.266,1.898,2.865,1.898,4.813c0,20.717-19.748,31.038-59.234,30.972
		C190.28,625.679,174.761,620.414,163.638,609.874z M184.975,552.802h50.35c-0.717-17.032-9.08-25.544-25.062-25.544
		C194.271,527.259,185.84,535.77,184.975,552.802z"/>
	<path fill="#264B52" d="M288.929,616.915V474.941c0-1.937,0.629-3.551,1.892-4.815c1.264-1.264,2.836-1.895,4.716-1.895h24.256
		c1.878,0,3.444,0.631,4.708,1.895c1.259,1.264,1.897,2.878,1.897,4.815v141.967c0,1.875-0.632,3.445-1.897,4.708
		c-1.264,1.263-2.83,1.893-4.708,1.893h-24.256c-1.882,0-3.452-0.631-4.716-1.893C289.558,620.353,288.929,618.783,288.929,616.915z
		"/>
	<path fill="#264B52" d="M356.231,615.712c-9.568-6.638-14.351-16.019-14.351-28.148c0-12.13,4.782-21.448,14.351-27.945
		c9.561-6.484,21.884-9.734,36.978-9.734h35.841c0-8.448-1.771-14.338-5.302-17.65c-3.539-3.325-9.734-4.979-18.568-4.979
		c-8.849,0-15.059,2.183-18.625,6.549c-3.577,4.368-7.964,6.548-13.166,6.548h-16.133c-1.948,0-3.556-0.629-4.82-1.893
		c-1.263-1.264-1.893-2.83-1.893-4.716c0-20.715,19.663-31.076,59.016-31.076c17.18,0,30.969,3.852,41.362,11.532
		c10.401,7.692,15.592,19.591,15.592,35.692v67.024c0,1.943-0.615,3.539-1.845,4.768c-1.228,1.221-2.805,1.838-4.76,1.838h-20.897
		c-1.952,0-3.534-0.632-4.768-1.897c-1.219-1.264-1.843-2.833-1.843-4.708v-3.358c-11.403,8.165-24.564,12.222-39.469,12.184
		C378.031,625.7,365.792,622.359,356.231,615.712z M383.841,578.14c-2.922,2.453-4.375,5.631-4.375,9.53
		c0,3.895,1.51,7.113,4.537,9.638c3.031,2.532,7.33,3.795,12.888,3.795c11.117,0,21.836-3.248,32.16-9.745v-16.902h-33.244
		C390.752,574.454,386.761,575.69,383.841,578.14z"/>
	<path fill="#264B52" d="M488.718,616.915V511.546c0-1.952,0.632-3.554,1.895-4.818c1.263-1.261,2.83-1.892,4.716-1.892h24.251
		c1.875,0,3.452,0.631,4.708,1.892c1.263,1.264,1.902,2.867,1.902,4.818v6.817c12.406-10.456,25.634-15.699,39.688-15.699
		c14.04,0,25.463,4.281,34.274,12.834c8.8,8.558,13.216,21.642,13.216,39.251v62.159c0,1.875-0.634,3.445-1.907,4.708
		c-1.264,1.263-2.87,1.893-4.82,1.893h-24.147c-1.873,0-3.445-0.631-4.715-1.893c-1.258-1.264-1.883-2.833-1.883-4.708v-62.159
		c0-17.25-6.894-25.878-20.69-25.878c-9.018,0-18.705,5.161-29.021,15.489v72.548c0,1.875-0.634,3.445-1.903,4.708
		c-1.254,1.263-2.83,1.893-4.708,1.893h-24.251c-1.887,0-3.452-0.631-4.716-1.893C489.346,620.353,488.718,618.783,488.718,616.915z
		"/>
	<path fill="#264B52" d="M677.468,625.679c-15.094,0-27.703-5.31-37.84-15.92c-10.152-10.608-15.218-25.825-15.218-45.635
		c0-19.822,5.242-35.02,15.75-45.605c10.501-10.563,24.635-15.855,42.397-15.855c9.167,0,19.608,1.848,31.292,5.527v-33.25
		c0-1.937,0.629-3.551,1.893-4.815c1.278-1.264,2.841-1.895,4.716-1.895h24.15c1.95,0,3.552,0.631,4.817,1.895
		c1.264,1.264,1.9,2.878,1.9,4.815v141.967c0,1.875-0.631,3.445-1.9,4.708c-1.268,1.263-2.867,1.893-4.817,1.893h-20.79
		c-1.95,0-3.539-0.631-4.768-1.893c-1.223-1.264-1.841-2.833-1.841-4.708v-3.358C705.801,621.638,692.552,625.679,677.468,625.679z
		 M669.246,537.274c-4.116,5.591-6.175,14.555-6.175,26.897c0,12.349,1.95,21.336,5.84,26.972c3.902,5.628,9.766,8.438,17.601,8.438
		c7.829,0,16.947-3.248,27.34-9.745v-56.626c-9.314-2.885-17.141-4.335-23.497-4.335
		C680.385,528.871,673.359,531.674,669.246,537.274z"/>
</g>
</svg>
